# xmcd
#
# Track frame offsets:
# 150
# 15851
# 30535
# 43080
# 56792
# 71848
# 83397
# 103399
# 116028
# 130318
# 143960
# 160228
#
# Disc length: 2342 seconds
#
#
# Revision: 0
# Processed by: cddbd v1.5.1PL0 Copyright (c) Steve Scherf et al.
# Submitted via: FreeRIP 2.942 
#
DISCID=a309240c
DTITLE=Xote Santo - Deus dos Milagres
DYEAR=2004
DGENRE=Gospel
TTITLE0=Louve so a Ele
TTITLE1=O Barco
TTITLE2=Deus dos Milagres
TTITLE3=Jesus e a Solucao
TTITLE4=Deus poderoso
TTITLE5=Deus Bom
TTITLE6=Jesus
TTITLE7=Se orar o Bicho corre
TTITLE8=Alingua I
TTITLE9=Quer ir mais eu
TTITLE10=Rei da Gloria (Salmo 24)
TTITLE11=O Povin Abencoado
EXTD=
EXTT0=
EXTT1=
EXTT2=
EXTT3=
EXTT4=
EXTT5=
EXTT6=
EXTT7=
EXTT8=
EXTT9=
EXTT10=
EXTT11=
PLAYORDER=
